{"glyphs":{"0":{"ha":772,"x_min":131,"x_max":844,"o":"m 692 475 q 715 665 715 586 q 571 867 715 867 q 446 820 502 867 q 350 686 391 774 q 283 475 309 598 q 260 285 260 363 q 404 83 260 83 q 692 475 607 83 m 822 475 q 745 242 797 356 q 602 51 693 129 q 380 -26 510 -26 q 232 15 288 -26 q 153 124 176 56 q 131 278 131 192 q 153 475 131 366 q 230 709 178 596 q 373 899 282 822 q 593 976 464 976 q 742 935 686 976 q 821 824 799 893 q 844 671 844 756 q 822 475 844 580 z "},"1":{"ha":772,"x_min":288,"x_max":706,"o":"m 706 976 l 498 0 l 368 0 l 515 693 l 288 693 l 308 790 q 419 803 377 795 q 494 829 460 810 q 555 882 527 847 q 610 976 583 916 l 706 976 z "},"2":{"ha":772,"x_min":36,"x_max":857,"o":"m 317 626 l 194 626 q 360 905 239 834 q 606 976 480 976 q 788 917 718 976 q 857 753 857 857 q 850 685 857 714 q 807 573 837 622 q 734 487 777 525 q 643 422 691 450 q 519 358 596 395 l 406 303 q 199 115 233 217 l 729 115 l 704 0 l 36 0 q 150 235 72 143 q 347 388 229 326 l 493 463 q 607 526 567 500 q 678 591 647 551 q 721 690 708 631 q 725 729 725 709 q 687 827 725 787 q 565 867 649 867 q 430 825 481 867 q 355 734 378 784 q 317 626 332 685 z "},"3":{"ha":772,"x_min":104,"x_max":847,"o":"m 407 450 l 429 555 q 493 553 471 553 q 634 590 573 553 q 712 712 694 628 q 717 746 717 728 q 682 831 717 796 q 565 867 648 867 q 404 805 452 867 q 331 657 355 743 l 211 657 q 270 810 228 739 q 393 929 313 882 q 593 976 473 976 q 781 921 714 976 q 847 777 847 867 q 840 720 847 753 q 773 584 822 634 q 672 518 725 534 l 672 515 q 793 351 793 473 q 786 288 793 317 q 741 170 773 227 q 656 69 708 114 q 530 -1 604 25 q 368 -26 457 -26 q 197 17 269 -26 q 104 210 104 72 q 111 299 104 252 l 237 299 q 231 229 231 261 q 400 83 231 83 q 564 136 494 83 q 653 272 634 188 q 659 319 659 296 q 463 451 659 451 q 435 451 454 451 q 407 450 416 450 z "},"4":{"ha":772,"x_min":85,"x_max":800,"o":"m 777 237 l 633 237 l 583 0 l 461 0 l 511 237 l 85 237 l 111 357 l 689 976 l 790 976 l 657 343 l 800 343 l 777 237 m 625 786 l 221 343 l 535 343 l 628 786 l 625 786 z "},"5":{"ha":772,"x_min":93,"x_max":863,"o":"m 424 836 l 325 568 q 526 629 418 629 q 657 601 597 629 q 753 518 718 572 q 789 388 789 463 q 781 317 789 356 q 655 84 755 195 q 354 -26 554 -26 q 169 25 246 -26 q 93 201 93 77 q 96 243 93 212 l 222 243 q 394 79 222 79 q 558 144 487 79 q 647 303 628 209 q 654 360 654 337 q 605 478 654 436 q 476 519 556 519 q 276 426 367 519 l 172 432 l 357 956 l 863 956 l 838 836 l 424 836 z "},"6":{"ha":772,"x_min":126,"x_max":856,"o":"m 851 717 l 732 717 q 596 867 732 867 q 443 803 509 867 q 339 657 377 740 q 286 506 301 574 l 289 503 q 392 587 328 552 q 546 622 456 622 q 661 599 604 622 q 756 524 718 576 q 794 392 794 472 q 786 313 794 355 q 757 221 776 264 q 711 142 739 178 q 640 68 683 105 q 528 -3 588 20 q 374 -26 469 -26 q 246 7 308 -26 q 153 115 184 41 q 126 264 126 179 q 150 454 126 342 q 204 633 169 543 q 297 801 240 723 q 436 928 354 879 q 621 976 517 976 q 731 955 677 976 q 820 887 785 935 q 856 765 856 839 q 851 717 856 742 m 260 300 q 254 246 254 276 q 295 130 254 176 q 419 83 336 83 q 526 112 476 83 q 611 191 576 140 q 659 307 645 242 q 664 358 664 340 q 626 468 664 424 q 504 512 589 512 q 344 452 408 512 q 260 300 280 392 z "},"7":{"ha":772,"x_min":190,"x_max":929,"o":"m 229 836 l 254 956 l 929 956 l 907 849 q 725 664 830 784 q 510 372 620 545 q 325 0 400 199 l 190 0 q 284 211 224 99 q 424 435 345 322 q 592 652 503 548 q 767 836 681 756 l 229 836 z "},"8":{"ha":772,"x_min":103,"x_max":843,"o":"m 838 725 q 772 590 818 633 q 668 519 727 546 q 785 340 785 467 q 778 282 785 312 q 710 130 760 200 q 575 16 659 59 q 382 -26 491 -26 q 267 -9 329 -26 q 162 48 206 8 q 103 197 103 105 q 113 280 103 237 q 328 518 148 451 q 231 661 231 559 q 236 708 231 686 q 290 829 249 768 q 406 933 331 890 q 589 976 481 976 q 734 948 677 976 q 817 873 791 919 q 843 773 843 828 q 838 725 843 755 m 482 458 q 322 405 385 458 q 243 278 258 352 q 239 229 239 255 q 410 83 242 83 q 557 124 492 83 q 645 268 623 165 q 650 318 650 292 q 604 423 650 388 q 482 458 558 458 m 503 564 q 639 609 581 564 q 710 721 696 653 q 712 751 712 740 q 677 833 712 800 q 560 867 643 867 q 425 820 472 867 q 364 714 377 773 q 361 683 361 703 q 402 596 361 629 q 503 564 442 564 z "},"9":{"ha":772,"x_min":114,"x_max":846,"o":"m 435 327 q 252 389 320 327 q 185 558 185 451 q 194 642 185 601 q 328 879 224 783 q 579 976 431 976 q 846 696 846 976 q 825 524 846 626 q 783 375 811 460 q 700 197 754 290 q 558 39 646 104 q 354 -26 471 -26 q 211 4 265 -26 q 136 81 158 35 q 114 180 114 128 q 119 235 114 213 l 242 235 q 239 201 239 212 q 273 108 239 141 q 372 75 308 75 q 494 114 439 75 q 596 233 549 152 q 685 440 644 315 l 683 443 q 576 358 646 389 q 435 327 506 327 m 476 436 q 615 484 546 436 q 711 659 684 531 q 718 718 718 695 q 679 826 718 785 q 558 867 640 867 q 408 806 473 867 q 322 647 343 745 q 314 576 314 608 q 476 436 314 436 z "}," ":{"ha":694,"x_min":0,"x_max":0,"o":""},"!":{"ha":386,"x_min":125,"x_max":472,"o":"m 290 142 l 260 0 l 125 0 l 156 142 l 290 142 m 276 237 l 208 237 l 267 668 l 337 997 l 472 997 l 401 668 l 276 237 z "},"\"":{"ha":493,"x_min":233,"x_max":608,"o":"m 233 643 l 310 997 l 411 997 l 335 643 l 233 643 m 431 643 l 507 997 l 608 997 l 532 643 l 431 643 z "},"#":{"ha":772,"x_min":101,"x_max":877,"o":"m 602 292 l 498 0 l 407 0 l 510 292 l 336 292 l 233 0 l 142 0 l 244 292 l 101 292 l 132 379 l 275 379 l 343 576 l 200 576 l 232 664 l 375 664 l 476 956 l 569 956 l 468 664 l 640 664 l 742 956 l 835 956 l 733 664 l 877 664 l 844 576 l 701 576 l 632 379 l 775 379 l 744 292 l 602 292 m 608 576 l 436 576 l 367 379 l 540 379 l 608 576 z "},"$":{"ha":772,"x_min":96,"x_max":858,"o":"m 472 568 l 540 886 q 409 839 464 886 q 340 725 355 792 q 336 692 336 709 q 374 609 336 640 q 472 568 413 579 m 507 428 l 432 75 q 578 126 519 75 q 653 250 637 177 q 657 286 657 269 q 635 361 657 330 q 578 404 613 393 l 507 428 m 853 724 l 735 724 q 708 834 735 797 q 606 886 682 872 l 535 554 q 680 503 630 525 q 759 444 729 481 q 789 345 789 407 q 781 272 789 316 q 694 97 758 164 q 554 1 630 29 q 411 -26 478 -26 l 383 -160 l 318 -160 l 346 -26 q 162 31 228 -19 q 96 194 96 82 q 107 296 96 246 l 229 296 q 222 217 222 242 q 254 120 222 151 q 367 75 287 89 l 446 443 q 323 483 373 461 q 241 546 273 505 q 208 651 208 587 q 217 717 208 680 q 283 853 232 790 q 407 951 333 915 q 561 987 480 987 l 581 1076 l 646 1076 l 626 987 q 858 783 858 967 q 853 724 858 751 z "},"%":{"ha":1235,"x_min":204,"x_max":1235,"o":"m 210 730 q 267 849 223 795 q 371 934 310 903 q 497 965 433 965 q 596 941 552 965 q 665 874 640 917 q 689 779 689 831 q 683 730 689 752 q 626 612 670 666 q 521 525 583 557 q 396 493 459 493 q 258 546 312 493 q 204 679 204 598 q 210 730 204 706 m 307 730 q 303 697 303 714 q 335 619 303 648 q 415 590 367 590 q 524 631 475 590 q 586 730 573 672 q 589 760 589 740 q 558 838 589 807 q 476 868 526 868 q 368 828 417 868 q 307 730 319 788 m 755 228 q 812 346 769 293 q 917 431 856 400 q 1043 463 979 463 q 1142 438 1098 463 q 1210 371 1186 414 q 1235 276 1235 329 q 1229 228 1235 250 q 1172 109 1216 164 q 1068 22 1129 54 q 943 -10 1007 -10 q 804 43 859 -10 q 750 176 750 96 q 755 228 750 203 m 853 228 q 849 194 849 211 q 880 116 849 145 q 961 87 912 87 q 1070 129 1021 87 q 1132 228 1120 170 q 1135 257 1135 237 q 1103 335 1135 304 q 1022 365 1072 365 q 914 325 963 365 q 853 228 865 285 m 1136 976 l 374 -26 l 299 -26 l 1060 976 l 1136 976 z "},"&":{"ha":926,"x_min":107,"x_max":899,"o":"m 621 196 l 454 471 q 300 368 349 412 q 236 250 252 323 q 232 215 232 231 q 257 140 232 170 q 316 98 282 111 q 380 85 351 85 q 621 196 516 85 m 526 610 q 634 687 592 649 q 689 782 677 726 q 692 811 692 793 q 665 873 692 854 q 604 892 638 892 q 505 857 537 892 q 465 783 474 823 q 463 758 463 767 q 526 610 463 695 m 764 215 l 896 0 l 738 0 l 668 114 q 524 14 598 48 q 350 -21 451 -21 q 161 42 215 -21 q 107 186 107 104 q 113 240 107 208 q 157 362 128 312 q 244 457 185 412 q 404 554 302 503 q 353 649 367 615 q 339 721 339 683 q 346 775 339 741 q 397 885 358 834 q 496 967 435 936 q 629 997 556 997 q 734 976 693 997 q 795 918 776 954 q 814 838 814 882 q 808 792 814 822 q 757 678 795 727 q 678 598 720 629 q 574 531 636 568 l 710 314 q 783 469 754 393 l 899 469 q 764 215 860 343 z "},"'":{"ha":265,"x_min":218,"x_max":396,"o":"m 218 643 l 294 997 l 396 997 l 319 643 l 218 643 z "},"(":{"ha":463,"x_min":150,"x_max":631,"o":"m 546 1018 l 631 1018 q 473 795 528 881 q 373 599 418 710 q 294 329 328 488 q 274 136 274 228 q 293 -53 274 40 q 354 -288 312 -147 l 272 -288 q 180 -45 210 -148 q 150 171 150 57 q 171 362 150 257 q 300 694 209 538 q 546 1018 392 850 z "},")":{"ha":463,"x_min":-13,"x_max":468,"o":"m 72 -288 l -13 -288 q 110 -118 66 -182 q 193 21 154 -54 q 264 187 232 95 q 322 401 296 279 q 343 594 343 504 q 333 728 343 662 q 308 857 323 794 q 264 1018 292 919 l 346 1018 q 438 780 407 884 q 468 563 468 675 q 446 368 468 468 q 318 37 409 192 q 72 -288 227 -118 z "},"*":{"ha":540,"x_min":229,"x_max":660,"o":"m 229 821 l 272 897 l 407 844 l 440 997 l 524 997 l 490 844 l 647 897 l 660 821 l 498 773 l 565 646 l 488 598 l 425 729 l 307 598 l 249 646 l 368 773 l 229 821 z "},"+":{"ha":811,"x_min":118,"x_max":842,"o":"m 440 401 l 504 701 l 606 701 l 542 401 l 842 401 l 821 300 l 521 300 l 457 0 l 356 0 l 419 300 l 118 300 l 139 401 l 440 401 z "},",":{"ha":386,"x_min":78,"x_max":297,"o":"m 121 0 l 153 147 l 297 147 l 268 11 q 185 -153 243 -109 q 78 -204 127 -197 l 92 -140 q 194 0 166 -133 l 121 0 z "},"-":{"ha":463,"x_min":129,"x_max":496,"o":"m 496 447 l 469 322 l 129 322 l 156 447 l 496 447 z "},".":{"ha":386,"x_min":121,"x_max":297,"o":"m 297 147 l 265 0 l 121 0 l 153 147 l 297 147 z "},"/":{"ha":386,"x_min":-29,"x_max":628,"o":"m 628 1024 l 64 -26 l -29 -26 l 536 1024 l 628 1024 z "},":":{"ha":386,"x_min":121,"x_max":418,"o":"m 297 147 l 265 0 l 121 0 l 153 147 l 297 147 m 418 717 l 386 569 l 242 569 l 274 717 l 418 717 z "},";":{"ha":386,"x_min":78,"x_max":418,"o":"m 121 0 l 153 147 l 297 147 l 268 11 q 185 -153 243 -109 q 78 -204 127 -197 l 92 -140 q 194 0 166 -133 l 121 0 m 386 569 l 242 569 l 274 717 l 418 717 l 386 569 z "},"<":{"ha":811,"x_min":131,"x_max":890,"o":"m 771 126 l 747 15 l 131 303 l 151 400 l 890 688 l 867 576 l 278 351 l 771 126 z "},"=":{"ha":811,"x_min":87,"x_max":872,"o":"m 872 542 l 850 440 l 147 440 l 170 542 l 872 542 m 812 261 l 790 160 l 87 160 l 110 261 l 812 261 z "},">":{"ha":811,"x_min":70,"x_max":829,"o":"m 189 576 l 213 688 l 829 400 l 808 303 l 70 15 l 93 126 l 683 351 l 189 576 z "},"?":{"ha":772,"x_min":223,"x_max":847,"o":"m 346 685 l 223 685 q 254 786 238 745 q 302 869 270 827 q 389 946 335 910 q 604 1010 484 1010 q 729 986 674 1010 q 816 914 784 962 q 847 801 847 867 q 840 738 847 777 q 811 657 830 692 q 755 589 791 623 q 661 508 720 555 q 568 429 597 457 q 519 361 539 400 q 486 254 499 321 l 364 254 q 402 379 381 333 q 457 460 424 425 q 560 553 490 495 q 650 632 625 608 q 689 682 675 656 q 711 746 703 707 q 715 782 715 762 q 683 868 715 832 q 576 904 651 904 q 346 685 392 904 m 472 142 l 442 0 l 307 0 l 337 142 l 472 142 z "},"@":{"ha":1410,"x_min":299,"x_max":1340,"o":"m 969 567 q 972 593 972 586 q 947 666 972 637 q 882 694 921 694 q 766 652 824 694 q 668 546 709 610 q 615 424 627 482 q 611 386 611 406 q 635 315 611 342 q 703 289 660 289 q 816 333 758 289 q 915 444 873 378 q 969 567 957 509 m 1038 686 l 1083 772 l 1178 772 q 1070 555 1139 692 q 980 377 1001 418 q 957 319 960 335 q 961 287 957 295 q 978 279 965 279 q 1079 323 1024 279 q 1179 437 1135 367 q 1239 579 1223 506 q 1247 659 1247 621 q 1206 807 1247 744 q 1091 904 1164 870 q 926 938 1018 938 q 751 903 835 938 q 596 808 666 869 q 478 666 526 747 q 410 493 429 584 q 400 399 400 447 q 444 223 400 300 q 567 103 487 146 q 750 60 647 60 q 881 79 813 60 q 1009 134 948 98 q 1121 218 1070 169 l 1214 218 q 1112 117 1168 162 q 992 39 1056 71 q 863 -9 929 7 q 729 -26 796 -26 q 555 4 634 -26 q 418 90 476 34 q 330 222 361 146 q 299 388 299 298 q 311 502 299 444 q 438 764 341 644 q 670 954 534 884 q 946 1024 805 1024 q 1148 980 1058 1024 q 1289 857 1238 937 q 1340 678 1340 778 q 1331 590 1340 635 q 1264 426 1312 500 q 1152 298 1216 352 q 1025 217 1088 244 q 914 189 962 189 q 843 276 843 189 l 840 275 q 655 189 741 189 q 537 237 581 189 q 493 358 493 285 q 498 411 493 387 q 579 595 519 506 q 724 739 638 684 q 901 794 809 794 q 1038 686 1010 794 z "},"A":{"ha":926,"x_min":19,"x_max":908,"o":"m 724 290 l 323 290 l 158 0 l 19 0 l 607 997 l 760 997 l 908 0 l 761 0 l 724 290 m 392 410 l 701 410 l 647 849 l 645 849 l 392 410 z "},"B":{"ha":926,"x_min":103,"x_max":989,"o":"m 425 882 l 360 575 l 603 575 q 766 612 705 575 q 846 736 827 649 q 850 773 850 756 q 669 882 850 882 l 425 882 m 103 0 l 315 997 l 754 997 q 929 943 869 997 q 989 803 989 889 q 982 746 989 778 q 928 629 969 686 q 804 537 886 572 q 902 475 863 513 q 940 360 940 437 q 933 294 940 324 q 863 146 916 213 q 724 40 809 79 q 532 0 638 0 l 103 0 m 336 465 l 262 115 l 550 115 q 717 164 653 115 q 799 297 781 212 q 804 339 804 330 q 602 465 804 465 l 336 465 z "},"C":{"ha":1003,"x_min":149,"x_max":1086,"o":"m 1085 697 l 954 697 q 883 859 953 814 q 718 904 812 904 q 585 879 649 904 q 465 804 520 853 q 369 679 410 754 q 308 508 328 603 q 290 354 290 418 q 550 93 290 93 q 664 115 603 93 q 788 199 726 138 q 893 367 849 260 l 1024 367 q 903 154 977 236 q 752 34 829 73 q 612 -15 674 -4 q 504 -26 551 -26 q 325 12 405 -26 q 196 132 244 50 q 149 337 149 214 q 168 504 149 418 q 245 714 192 618 q 372 880 297 810 q 542 986 448 949 q 744 1024 637 1024 q 936 984 859 1024 q 1049 878 1013 944 q 1086 730 1086 811 q 1085 697 1086 708 z "},"D":{"ha":1003,"x_min":113,"x_max":1060,"o":"m 113 0 l 325 997 l 729 997 q 973 905 887 997 q 1060 654 1060 813 q 1044 512 1060 581 q 985 333 1026 424 q 879 167 943 242 q 721 46 814 93 q 511 0 628 0 l 113 0 m 435 882 l 272 115 l 533 115 q 766 217 667 115 q 904 504 866 319 q 920 637 920 572 q 859 820 920 758 q 686 882 798 882 l 435 882 z "},"E":{"ha":926,"x_min":119,"x_max":1058,"o":"m 881 119 l 856 0 l 119 0 l 332 997 l 1058 997 l 1032 878 l 440 878 l 376 572 l 922 572 l 896 453 l 350 453 l 279 119 l 881 119 z "},"F":{"ha":849,"x_min":119,"x_max":1022,"o":"m 350 453 l 254 0 l 119 0 l 332 997 l 1022 997 l 996 878 l 440 878 l 376 572 l 865 572 l 839 453 l 350 453 z "},"G":{"ha":1081,"x_min":153,"x_max":1110,"o":"m 629 418 l 654 533 l 1092 533 l 978 0 l 890 0 l 886 129 q 811 65 853 94 q 723 16 769 36 q 625 -15 676 -4 q 524 -26 574 -26 q 346 5 409 -26 q 242 86 283 36 q 153 339 153 191 q 175 507 153 404 q 279 754 202 634 q 480 948 357 873 q 757 1024 604 1024 q 930 990 850 1024 q 1060 889 1011 957 q 1110 725 1110 821 q 1108 694 1110 704 l 978 694 q 900 858 974 812 q 724 904 827 904 q 548 857 633 904 q 401 718 464 809 q 313 500 339 626 q 294 351 294 418 q 557 89 294 89 q 773 153 679 89 q 884 266 847 202 q 940 418 922 331 l 629 418 z "},"H":{"ha":1003,"x_min":107,"x_max":1110,"o":"m 886 585 l 975 997 l 1110 997 l 897 0 l 763 0 l 861 465 l 340 465 l 242 0 l 107 0 l 319 997 l 454 997 l 365 585 l 886 585 z "},"I":{"ha":386,"x_min":126,"x_max":474,"o":"m 474 997 l 261 0 l 126 0 l 339 997 l 474 997 z "},"J":{"ha":694,"x_min":65,"x_max":807,"o":"m 92 321 l 218 321 l 203 251 q 196 196 196 217 q 319 89 196 89 q 515 261 478 89 l 672 997 l 807 997 l 651 270 q 573 94 629 160 q 447 1 518 28 q 301 -26 377 -26 q 160 2 213 -26 q 86 73 107 30 q 65 167 65 117 q 71 222 65 200 l 92 321 z "},"K":{"ha":926,"x_min":105,"x_max":1122,"o":"m 315 350 l 240 0 l 105 0 l 318 997 l 453 997 l 350 514 l 936 997 l 1122 997 l 621 594 l 921 0 l 746 0 l 504 500 l 315 350 z "},"L":{"ha":772,"x_min":105,"x_max":771,"o":"m 453 997 l 265 119 l 771 119 l 746 0 l 105 0 l 318 997 l 453 997 z "},"M":{"ha":1157,"x_min":101,"x_max":1270,"o":"m 1057 0 l 926 0 l 1052 589 q 1107 838 1086 736 l 1104 838 l 646 0 l 512 0 l 410 836 l 407 836 q 378 691 394 776 q 357 589 361 607 l 232 0 l 101 0 l 314 997 l 507 997 l 612 154 l 615 154 l 1078 997 l 1270 997 l 1057 0 z "},"N":{"ha":1003,"x_min":105,"x_max":1110,"o":"m 807 192 l 979 997 l 1110 997 l 897 0 l 746 0 l 410 806 l 407 806 l 236 0 l 105 0 l 318 997 l 478 997 l 804 192 l 807 192 z "},"O":{"ha":1081,"x_min":146,"x_max":1146,"o":"m 993 498 q 1006 615 1006 563 q 974 767 1006 702 q 881 868 943 832 q 732 904 819 904 q 581 874 652 904 q 454 790 511 845 q 357 661 397 735 q 299 498 317 587 q 286 382 286 437 q 317 230 286 296 q 410 129 349 165 q 560 93 472 93 q 711 123 640 93 q 838 207 782 153 q 935 336 895 261 q 993 498 974 410 m 1132 498 q 1069 321 1114 412 q 951 150 1024 229 q 773 22 878 71 q 535 -26 668 -26 q 307 29 394 -26 q 183 172 220 84 q 146 364 146 259 q 160 498 146 431 q 223 677 178 586 q 342 847 268 768 q 521 975 416 926 q 758 1024 626 1024 q 986 969 899 1024 q 1109 826 1073 913 q 1146 635 1146 738 q 1132 498 1146 559 z "},"P":{"ha":926,"x_min":119,"x_max":1024,"o":"m 442 882 l 368 536 l 636 536 q 877 715 840 536 q 882 763 882 740 q 715 882 882 882 l 442 882 m 343 421 l 254 0 l 119 0 l 332 997 l 781 997 q 960 939 897 997 q 1024 783 1024 881 q 1017 717 1024 754 q 898 509 990 597 q 657 421 806 421 l 343 421 z "},"Q":{"ha":1081,"x_min":146,"x_max":1146,"o":"m 626 205 l 712 289 l 818 190 q 896 273 862 226 q 955 378 930 321 q 993 498 980 436 q 1006 615 1006 563 q 974 767 1006 702 q 881 868 943 832 q 732 904 819 904 q 581 874 652 904 q 454 790 511 845 q 357 661 397 735 q 299 498 317 587 q 286 382 286 437 q 317 230 286 296 q 410 129 349 165 q 560 93 472 93 q 714 125 644 93 l 626 205 m 1018 3 l 933 -78 l 806 40 q 535 -26 688 -26 q 307 29 394 -26 q 183 172 220 84 q 146 364 146 259 q 160 498 146 431 q 223 677 178 586 q 342 847 268 768 q 521 975 416 926 q 758 1024 626 1024 q 986 969 899 1024 q 1109 826 1073 913 q 1146 635 1146 738 q 1132 498 1146 559 q 1103 398 1122 450 q 1055 294 1084 346 q 990 195 1027 242 q 906 108 952 148 l 1018 3 z "},"R":{"ha":1003,"x_min":122,"x_max":1075,"o":"m 347 428 l 257 0 l 122 0 l 335 997 l 796 997 q 997 951 919 997 q 1075 799 1075 906 q 1067 729 1075 767 q 996 579 1045 631 q 877 490 947 527 q 941 447 919 471 q 963 367 963 422 q 956 303 963 347 l 926 122 q 921 78 921 98 q 954 22 921 43 l 950 0 l 785 0 q 788 61 785 27 q 797 139 790 95 q 806 205 803 183 q 814 250 810 228 q 822 315 822 290 q 674 428 822 428 l 347 428 m 445 882 l 372 543 l 685 543 q 839 579 775 543 q 924 715 903 615 q 929 768 929 741 q 781 882 929 882 l 445 882 z "},"S":{"ha":926,"x_min":125,"x_max":990,"o":"m 983 706 l 857 706 q 861 747 861 730 q 800 870 861 831 q 653 908 740 908 q 575 902 614 908 q 497 876 536 895 q 429 822 458 858 q 388 733 399 787 q 383 703 383 715 q 479 607 383 632 l 750 542 q 926 343 926 497 q 920 275 926 307 q 854 132 902 191 q 741 38 806 72 q 606 -12 676 3 q 465 -26 535 -26 q 282 1 342 -26 q 185 70 221 28 q 125 227 125 135 q 136 322 125 269 l 262 322 q 256 265 256 288 q 323 131 256 173 q 489 89 391 89 q 676 125 588 89 q 785 257 764 162 q 790 303 790 279 q 751 381 790 353 q 610 433 711 409 l 417 480 q 247 661 247 523 q 253 715 247 689 q 322 867 270 797 q 461 981 374 938 q 663 1024 548 1024 q 990 783 990 1024 q 983 706 990 742 z "},"T":{"ha":849,"x_min":205,"x_max":1042,"o":"m 205 878 l 232 997 l 1042 997 l 1015 878 l 678 878 l 492 0 l 357 0 l 543 878 l 205 878 z "},"U":{"ha":1003,"x_min":171,"x_max":1107,"o":"m 972 997 l 1107 997 l 969 350 q 913 204 953 272 q 813 84 874 136 q 670 3 752 32 q 488 -26 587 -26 q 249 49 328 -26 q 171 244 171 124 q 180 332 171 289 l 322 997 l 457 997 l 323 370 q 313 280 313 316 q 371 137 313 181 q 517 93 429 93 q 650 118 585 93 q 765 204 714 142 q 838 367 816 266 l 972 997 z "},"V":{"ha":926,"x_min":240,"x_max":1111,"o":"m 497 147 l 960 997 l 1111 997 l 535 0 l 392 0 l 240 997 l 390 997 l 494 147 l 497 147 z "},"W":{"ha":1311,"x_min":235,"x_max":1501,"o":"m 829 826 l 424 0 l 282 0 l 235 997 l 380 997 l 393 186 l 396 186 l 793 997 l 940 997 l 990 186 l 993 186 l 1353 997 l 1501 997 l 1026 0 l 885 0 l 832 826 l 829 826 z "},"X":{"ha":926,"x_min":26,"x_max":1097,"o":"m 659 511 l 900 0 l 733 0 l 553 410 l 189 0 l 26 0 l 492 511 l 261 997 l 431 997 l 602 615 l 936 997 l 1097 997 l 659 511 z "},"Y":{"ha":926,"x_min":232,"x_max":1119,"o":"m 615 401 l 531 0 l 396 0 l 480 401 l 232 997 l 389 997 l 572 518 l 961 997 l 1119 997 l 615 401 z "},"Z":{"ha":849,"x_min":32,"x_max":1029,"o":"m 842 119 l 817 0 l 32 0 l 56 113 l 829 878 l 264 878 l 290 997 l 1029 997 l 1004 881 l 228 119 l 842 119 z "},"[":{"ha":386,"x_min":29,"x_max":560,"o":"m 389 904 l 160 -174 l 310 -174 l 289 -272 l 29 -272 l 300 1003 l 560 1003 l 539 904 l 389 904 z "},"\\":{"ha":386,"x_min":194,"x_max":404,"o":"m 311 -26 l 194 1024 l 286 1024 l 404 -26 l 311 -26 z "},"]":{"ha":386,"x_min":-19,"x_max":511,"o":"m 151 -174 l 380 904 l 231 904 l 251 1003 l 511 1003 l 240 -272 l -19 -272 l 1 -174 l 151 -174 z "},"^":{"ha":651,"x_min":58,"x_max":749,"o":"m 749 367 l 642 367 l 506 844 l 167 367 l 58 367 l 479 956 l 579 956 l 749 367 z "},"_":{"ha":772,"x_min":-38,"x_max":750,"o":"m 735 -174 l -38 -174 l -22 -104 l 750 -104 l 735 -174 z "},"`":{"ha":463,"x_min":236,"x_max":468,"o":"m 375 824 l 236 1019 l 386 1019 l 468 824 l 375 824 z "},"a":{"ha":772,"x_min":85,"x_max":777,"o":"m 306 506 l 193 506 q 314 689 224 631 q 545 747 404 747 q 638 736 585 747 q 734 689 691 725 q 777 589 777 654 q 771 545 777 566 l 682 126 q 690 93 682 102 q 714 83 697 83 q 755 89 725 83 l 736 0 q 718 -5 734 0 q 690 -12 702 -9 q 667 -14 679 -14 q 558 67 558 -14 q 561 97 558 78 q 435 12 502 45 q 274 -21 368 -21 q 136 24 188 -21 q 85 142 85 68 q 90 189 85 167 q 165 332 106 263 q 360 417 224 400 l 567 442 q 649 528 632 448 q 651 554 651 547 q 503 646 651 646 q 370 606 411 646 q 306 506 329 567 m 586 251 l 612 371 q 550 348 592 358 q 401 325 508 338 q 324 309 359 319 q 259 274 289 299 q 221 207 230 249 q 217 168 217 186 q 325 81 217 81 q 439 103 381 81 q 537 166 496 126 q 586 251 577 205 z "},"b":{"ha":772,"x_min":81,"x_max":811,"o":"m 196 0 l 81 0 l 293 997 l 415 997 l 337 635 l 340 635 q 574 747 440 745 q 704 715 650 747 q 784 624 758 683 q 811 490 811 566 q 800 385 811 434 q 729 194 779 286 q 594 41 679 102 q 394 -21 510 -21 q 275 12 313 -21 q 218 90 237 44 l 215 90 l 196 0 m 669 365 q 683 479 683 428 q 529 637 683 637 q 267 329 332 637 q 258 253 258 288 q 306 125 258 164 q 414 85 353 85 q 576 162 510 85 q 669 365 642 239 z "},"c":{"ha":694,"x_min":104,"x_max":768,"o":"m 765 482 l 647 482 q 614 599 647 561 q 508 637 581 637 q 384 598 437 637 q 297 496 330 558 q 250 364 264 434 q 236 251 236 302 q 389 85 236 85 q 509 130 452 85 q 598 257 566 176 l 717 257 q 674 161 703 210 q 603 72 646 113 q 499 5 560 31 q 362 -21 438 -21 q 171 50 238 -21 q 104 240 104 121 q 115 343 104 295 q 265 635 153 522 q 549 747 376 747 q 716 686 664 747 q 768 531 768 625 q 765 482 768 498 z "},"d":{"ha":772,"x_min":117,"x_max":906,"o":"m 906 997 l 693 0 l 578 0 l 598 100 l 596 100 q 364 -21 506 -21 q 174 58 232 -21 q 117 257 117 136 q 131 385 117 319 q 205 570 152 487 q 337 700 258 653 q 510 747 416 747 q 636 711 596 747 q 700 624 677 674 l 706 633 l 783 997 l 906 997 m 253 365 q 240 261 240 309 q 277 132 240 179 q 389 85 314 85 q 484 107 434 85 q 577 185 534 130 q 639 329 620 240 q 655 465 655 408 q 510 637 655 637 q 331 556 387 637 q 253 365 275 474 z "},"e":{"ha":772,"x_min":118,"x_max":804,"o":"m 633 228 l 755 228 q 698 129 743 189 q 583 29 653 69 q 376 -21 500 -21 q 185 50 252 -21 q 118 240 118 121 q 129 343 118 295 q 279 635 167 522 q 563 747 390 747 q 697 715 643 747 q 778 623 751 684 q 804 478 804 563 q 786 323 804 414 l 256 323 q 246 243 246 283 q 289 126 246 166 q 415 85 332 85 q 516 108 469 85 q 594 165 564 132 q 633 228 625 199 m 275 421 l 679 421 q 685 480 685 463 q 524 637 685 637 q 416 607 469 637 q 326 527 363 577 q 275 421 288 477 z "},"f":{"ha":386,"x_min":119,"x_max":578,"o":"m 497 625 l 375 625 l 242 0 l 119 0 l 253 625 l 153 625 l 174 726 l 274 726 l 300 851 q 524 1011 334 1011 q 578 1008 542 1011 l 555 899 q 506 901 525 901 q 446 881 467 901 q 415 817 425 862 l 396 726 l 518 726 l 497 625 z "},"g":{"ha":772,"x_min":58,"x_max":847,"o":"m 260 365 q 247 261 247 310 q 284 132 247 179 q 396 85 321 85 q 491 107 440 85 q 584 185 541 130 q 646 329 627 240 q 663 465 663 412 q 517 637 663 637 q 338 556 393 637 q 260 365 282 474 m 847 726 l 706 60 q 653 -103 687 -27 q 531 -242 619 -179 q 290 -306 443 -306 q 129 -262 199 -306 q 58 -89 58 -218 l 180 -89 q 321 -204 180 -204 q 471 -162 417 -204 q 547 -70 526 -120 q 582 52 567 -19 l 589 82 l 586 82 l 585 76 q 494 7 549 34 q 371 -21 439 -21 q 182 58 239 -21 q 124 257 124 136 q 138 385 124 319 q 213 571 159 488 q 344 700 266 653 q 517 747 423 747 q 644 711 603 747 q 707 624 684 674 l 710 624 l 732 726 l 847 726 z "},"h":{"ha":772,"x_min":90,"x_max":796,"o":"m 787 494 l 682 0 l 560 0 l 661 475 q 669 540 669 510 q 643 613 669 589 q 551 637 616 637 q 395 580 466 637 q 297 396 324 523 l 213 0 l 90 0 l 303 997 l 425 997 l 346 629 l 349 629 q 453 713 397 679 q 586 747 509 747 q 735 707 674 747 q 796 568 796 666 q 787 494 796 535 z "},"i":{"ha":308,"x_min":93,"x_max":428,"o":"m 370 726 l 215 0 l 93 0 l 247 726 l 370 726 m 397 858 l 275 858 l 306 997 l 428 997 l 397 858 z "},"j":{"ha":308,"x_min":-83,"x_max":428,"o":"m 370 726 l 193 -107 q 131 -237 177 -182 q -33 -292 84 -292 q -83 -288 -56 -292 l -61 -182 l -36 -182 q 41 -167 21 -182 q 74 -93 61 -152 l 247 726 l 370 726 m 428 997 l 397 858 l 275 858 l 306 997 l 428 997 z "},"k":{"ha":694,"x_min":93,"x_max":833,"o":"m 498 455 l 696 0 l 539 0 l 390 367 l 270 275 l 211 0 l 93 0 l 306 997 l 424 997 l 300 419 l 678 726 l 833 726 l 498 455 z "},"l":{"ha":308,"x_min":93,"x_max":428,"o":"m 428 997 l 215 0 l 93 0 l 306 997 l 428 997 z "},"m":{"ha":1157,"x_min":90,"x_max":1183,"o":"m 90 0 l 244 726 l 360 726 l 337 624 l 340 624 q 586 747 450 747 q 705 712 671 747 q 754 629 739 677 q 875 720 825 692 q 1001 747 925 747 q 1084 732 1042 747 q 1154 679 1125 718 q 1183 574 1183 640 q 1175 503 1183 542 l 1068 0 l 946 0 l 1046 469 q 1054 536 1054 506 q 947 637 1054 637 q 853 610 898 637 q 777 537 808 582 q 735 443 745 491 l 640 0 l 518 0 l 625 503 q 629 546 629 524 q 540 637 629 637 q 450 616 498 637 q 359 541 401 594 q 297 396 317 487 l 213 0 l 90 0 z "},"n":{"ha":772,"x_min":90,"x_max":796,"o":"m 787 494 l 682 0 l 560 0 l 654 447 q 665 531 665 497 q 636 611 665 585 q 540 637 607 637 q 450 616 498 637 q 359 541 401 594 q 297 396 317 487 l 213 0 l 90 0 l 244 726 l 360 726 l 337 624 l 340 624 q 586 747 450 747 q 735 707 674 747 q 796 568 796 666 q 787 494 796 535 z "},"o":{"ha":772,"x_min":115,"x_max":812,"o":"m 126 364 q 202 550 147 462 q 346 692 258 637 q 545 747 435 747 q 665 725 614 747 q 749 664 716 703 q 797 574 781 625 q 812 464 812 523 q 801 364 812 416 q 724 178 781 266 q 580 36 668 91 q 382 -19 492 -19 q 182 60 248 -19 q 115 261 115 139 q 126 364 115 310 m 253 364 q 243 274 243 318 q 280 140 243 194 q 404 86 316 86 q 542 132 484 86 q 630 240 599 178 q 675 364 662 303 q 685 453 685 408 q 670 545 685 503 q 619 615 655 588 q 522 642 583 642 q 340 553 407 642 q 253 364 274 465 z "},"p":{"ha":772,"x_min":19,"x_max":811,"o":"m 267 329 q 258 253 258 288 q 306 125 258 164 q 414 85 353 85 q 576 162 510 85 q 669 365 642 239 q 683 479 683 428 q 529 637 683 637 q 267 329 332 637 m 19 -288 l 235 726 l 350 726 l 328 624 l 331 624 q 434 712 381 677 q 574 747 488 747 q 704 715 650 747 q 784 624 758 683 q 811 490 811 566 q 800 385 811 434 q 729 194 779 286 q 594 41 679 102 q 394 -21 510 -21 q 283 7 327 -21 q 222 76 239 34 l 219 76 l 142 -288 l 19 -288 z "},"q":{"ha":772,"x_min":117,"x_max":840,"o":"m 840 726 l 625 -288 l 503 -288 l 581 76 l 578 76 q 487 7 542 34 q 364 -21 432 -21 q 174 58 232 -21 q 117 257 117 136 q 131 385 117 319 q 205 570 152 487 q 337 700 258 653 q 510 747 416 747 q 636 711 596 747 q 700 624 677 674 l 703 624 l 725 726 l 840 726 m 639 329 q 655 465 655 408 q 510 637 655 637 q 331 556 387 637 q 253 365 275 474 q 240 261 240 309 q 277 132 240 179 q 389 85 314 85 q 484 107 434 85 q 577 185 534 130 q 639 329 620 240 z "},"r":{"ha":463,"x_min":107,"x_max":620,"o":"m 319 422 l 229 0 l 107 0 l 261 726 l 376 726 l 351 606 l 354 606 q 588 747 466 747 q 620 743 605 747 l 592 617 l 546 617 q 443 591 491 617 q 363 519 395 564 q 319 422 331 475 z "},"s":{"ha":694,"x_min":87,"x_max":735,"o":"m 730 519 l 612 519 q 615 549 615 538 q 467 642 615 642 q 366 620 418 642 q 300 539 313 598 q 297 518 297 523 q 322 474 297 489 q 413 442 346 460 l 528 411 q 658 352 618 387 q 697 264 697 318 q 692 219 697 250 q 627 92 676 147 q 507 8 578 37 q 353 -21 435 -21 q 87 167 87 -21 q 95 233 87 188 l 213 233 q 210 197 210 208 q 374 85 210 85 q 499 114 445 85 q 565 200 553 143 q 568 221 568 214 q 540 268 568 252 q 443 304 513 285 l 308 339 q 174 476 174 373 q 178 515 174 494 q 242 644 194 591 q 359 722 291 696 q 502 747 427 747 q 685 691 636 747 q 735 563 735 634 q 730 519 735 541 z "},"t":{"ha":386,"x_min":142,"x_max":511,"o":"m 490 625 l 374 625 l 272 153 q 290 106 272 116 q 335 96 308 96 l 378 96 l 357 0 q 300 -6 329 -3 q 264 -10 272 -10 q 142 89 142 -10 q 149 146 142 114 l 251 625 l 153 625 l 174 726 l 272 726 l 315 929 l 437 929 l 394 726 l 511 726 l 490 625 z "},"u":{"ha":772,"x_min":131,"x_max":833,"o":"m 679 0 l 564 0 l 586 105 l 585 108 q 470 11 530 42 q 327 -21 411 -21 q 188 18 245 -21 q 131 144 131 58 q 138 204 131 169 l 249 726 l 371 726 l 268 244 q 261 190 261 211 q 375 85 261 85 q 499 121 447 85 q 583 212 552 157 q 626 327 614 267 l 711 726 l 833 726 l 679 0 z "},"v":{"ha":694,"x_min":165,"x_max":838,"o":"m 374 135 l 704 726 l 838 726 l 407 0 l 276 0 l 165 726 l 307 726 l 371 135 l 374 135 z "},"w":{"ha":1003,"x_min":174,"x_max":1139,"o":"m 617 563 l 356 0 l 229 0 l 174 726 l 307 726 l 325 156 l 328 156 l 589 726 l 725 726 l 746 156 l 749 156 l 1017 726 l 1139 726 l 773 0 l 647 0 l 620 563 l 617 563 z "},"x":{"ha":694,"x_min":15,"x_max":825,"o":"m 504 374 l 681 0 l 525 0 l 403 274 l 170 0 l 15 0 l 350 374 l 182 726 l 339 726 l 453 471 l 675 726 l 825 726 l 504 374 z "},"y":{"ha":694,"x_min":21,"x_max":833,"o":"m 379 135 l 699 726 l 833 726 q 421 14 554 236 q 307 -168 345 -112 q 238 -252 270 -223 q 171 -289 205 -281 q 71 -297 137 -297 q 21 -286 58 -297 l 44 -175 q 115 -188 77 -188 q 167 -177 148 -188 q 209 -134 186 -166 q 280 -19 231 -102 l 170 726 l 308 726 l 376 135 l 379 135 z "},"z":{"ha":694,"x_min":43,"x_max":793,"o":"m 772 626 l 228 101 l 674 101 l 651 0 l 43 0 l 64 96 l 614 625 l 210 625 l 231 726 l 793 726 l 772 626 z "},"{":{"ha":464,"x_min":128,"x_max":618,"o":"m 128 325 l 144 408 q 236 459 193 408 q 294 585 279 510 l 346 824 q 416 954 363 905 q 525 1003 468 1003 l 618 1003 l 600 912 l 539 912 q 450 799 475 912 l 400 563 q 324 426 376 475 q 236 368 272 377 l 236 365 q 293 321 264 357 q 321 217 321 286 q 317 167 321 194 l 267 -68 q 260 -122 260 -100 q 306 -182 260 -182 l 367 -182 l 347 -272 l 254 -272 q 177 -238 208 -272 q 146 -144 146 -204 q 151 -93 146 -117 l 201 144 q 208 207 208 182 q 186 293 208 261 q 128 325 165 325 z "},"|":{"ha":361,"x_min":125,"x_max":450,"o":"m 125 -26 l 349 1024 l 450 1024 l 227 -26 l 125 -26 z "},"}":{"ha":464,"x_min":0,"x_max":492,"o":"m 492 408 l 475 325 q 383 273 427 325 q 323 144 340 222 l 274 -93 q 233 -188 262 -147 q 166 -251 204 -229 q 93 -272 129 -272 l 0 -272 l 19 -182 l 81 -182 q 170 -68 143 -182 l 219 167 q 255 254 233 217 q 302 314 277 291 q 348 350 327 338 q 383 365 369 361 l 383 368 q 327 412 356 375 q 299 517 299 450 q 303 563 299 537 l 353 799 q 360 853 360 830 q 314 912 360 912 l 253 912 l 271 1003 l 364 1003 q 442 968 411 1003 q 474 873 474 933 q 468 824 474 847 l 417 585 q 410 526 410 548 q 432 441 410 473 q 492 408 454 408 z "},"~":{"ha":811,"x_min":154,"x_max":806,"o":"m 772 453 l 806 375 q 607 256 706 256 q 475 301 549 256 q 327 350 400 350 q 188 250 256 350 l 154 328 q 353 447 242 447 q 498 403 407 447 q 629 353 597 353 q 699 379 666 353 q 772 453 731 405 z "},"‚":{"ha":308,"x_min":29,"x_max":250,"o":"m 74 0 l 105 147 l 250 147 l 221 11 q 157 -132 202 -76 q 29 -207 112 -188 l 43 -142 q 147 0 121 -130 l 74 0 z "},"„":{"ha":463,"x_min":-8,"x_max":442,"o":"m 36 0 l 68 147 l 213 147 l 183 11 q 120 -132 164 -77 q -8 -207 75 -188 l 5 -142 q 77 -94 55 -134 q 110 0 99 -54 l 36 0 m 265 0 l 297 147 l 442 147 l 413 11 q 348 -133 393 -77 q 221 -207 304 -188 l 235 -142 q 339 0 313 -130 l 265 0 z "},"…":{"ha":1389,"x_min":160,"x_max":1261,"o":"m 336 147 l 304 0 l 160 0 l 192 147 l 336 147 m 799 147 l 767 0 l 622 0 l 654 147 l 799 147 m 1261 147 l 1229 0 l 1085 0 l 1117 147 l 1261 147 z "},"†":{"ha":772,"x_min":188,"x_max":864,"o":"m 581 598 l 406 -221 l 275 -221 l 450 598 l 188 598 l 210 704 l 472 704 l 535 997 l 665 997 l 603 704 l 864 704 l 842 598 l 581 598 z "},"‡":{"ha":772,"x_min":72,"x_max":865,"o":"m 582 610 l 488 165 l 749 165 l 726 60 l 465 60 l 406 -221 l 275 -221 l 335 60 l 72 60 l 95 165 l 357 165 l 451 610 l 189 610 l 211 715 l 474 715 l 535 997 l 665 997 l 604 715 l 865 715 l 843 610 l 582 610 z "},"‰":{"ha":1389,"x_min":122,"x_max":1429,"o":"m 170 749 q 221 857 181 807 q 317 936 261 907 q 432 965 373 965 q 558 917 510 965 q 607 793 607 868 q 603 749 607 772 q 550 640 590 690 q 454 561 510 590 q 339 532 398 532 q 212 579 261 532 q 164 701 164 627 q 170 749 164 727 m 257 749 q 254 721 254 729 q 283 648 254 676 q 358 620 311 620 q 458 657 412 620 q 515 749 504 695 q 518 775 518 768 q 489 849 518 820 q 413 878 459 878 q 313 840 358 878 q 257 749 268 802 m 488 207 q 539 316 499 266 q 635 395 579 366 q 750 424 691 424 q 877 375 828 424 q 925 251 925 327 q 921 207 925 230 q 869 98 908 148 q 773 19 829 48 q 659 -10 718 -10 q 567 12 607 -10 q 504 72 527 34 q 482 160 482 111 q 488 207 482 185 m 575 207 q 572 179 572 188 q 601 106 572 135 q 676 78 629 78 q 776 116 730 78 q 833 207 822 154 q 836 233 836 227 q 807 307 836 278 q 730 336 778 336 q 631 298 676 336 q 575 207 586 260 m 992 207 q 1044 316 1004 266 q 1139 395 1083 366 q 1254 424 1195 424 q 1381 375 1332 424 q 1429 251 1429 327 q 1425 207 1429 229 q 1372 98 1412 147 q 1277 19 1333 48 q 1162 -10 1221 -10 q 1071 12 1111 -10 q 1008 72 1031 34 q 986 160 986 111 q 992 207 986 185 m 1079 207 q 1076 179 1076 190 q 1105 106 1076 135 q 1181 78 1134 78 q 1280 116 1234 78 q 1337 207 1326 154 q 1340 233 1340 224 q 1311 307 1340 278 q 1235 336 1282 336 q 1135 298 1180 336 q 1079 207 1090 260 m 963 976 l 199 -26 l 122 -26 l 886 976 l 963 976 z "},"‹":{"ha":463,"x_min":190,"x_max":472,"o":"m 399 272 l 372 150 l 190 321 l 218 449 l 472 620 l 446 497 l 276 385 l 399 272 z "},"‘":{"ha":308,"x_min":229,"x_max":449,"o":"m 404 800 l 374 653 l 229 653 l 258 789 q 449 1007 296 973 l 435 942 q 365 897 386 935 q 331 800 345 859 l 404 800 z "},"’":{"ha":308,"x_min":210,"x_max":431,"o":"m 254 850 l 286 997 l 431 997 l 401 861 q 338 718 382 773 q 210 643 293 662 l 223 708 q 295 756 273 716 q 328 850 317 797 l 254 850 z "},"“":{"ha":463,"x_min":192,"x_max":640,"o":"m 596 800 l 565 653 l 421 653 l 450 789 q 513 933 468 877 q 640 1007 557 988 l 626 942 q 557 897 577 935 q 522 800 536 859 l 596 800 m 367 800 l 336 653 l 192 653 l 221 789 q 283 933 239 877 q 411 1007 328 988 l 397 942 q 328 897 348 935 q 293 800 307 859 l 367 800 z "},"”":{"ha":463,"x_min":172,"x_max":622,"o":"m 217 850 l 249 997 l 393 997 l 364 861 q 329 761 351 805 q 267 686 306 716 q 172 643 229 655 l 186 708 q 257 756 235 716 q 290 850 279 797 l 217 850 m 446 850 l 478 997 l 622 997 l 593 861 q 529 718 574 773 q 401 643 485 662 l 415 708 q 487 756 465 716 q 519 850 509 797 l 446 850 z "},"•":{"ha":486,"x_min":126,"x_max":574,"o":"m 568 498 q 516 389 556 439 q 419 310 475 339 q 303 280 362 280 q 175 329 224 280 q 126 453 126 377 q 131 498 126 475 q 183 608 144 558 q 280 689 223 659 q 396 718 336 718 q 524 669 474 718 q 574 545 574 620 q 568 498 574 519 z "},"–":{"ha":772,"x_min":71,"x_max":865,"o":"m 865 435 l 843 333 l 71 333 l 93 435 l 865 435 z "},"—":{"ha":1389,"x_min":71,"x_max":1482,"o":"m 1482 435 l 1460 333 l 71 333 l 93 435 l 1482 435 z "},"™":{"ha":1389,"x_min":258,"x_max":1467,"o":"m 986 997 l 1060 576 l 1311 997 l 1467 997 l 1344 425 l 1243 425 l 1342 890 l 1339 890 l 1061 425 l 992 425 l 911 890 l 908 890 l 810 425 l 708 425 l 830 997 l 986 997 m 730 997 l 712 914 l 536 914 l 432 425 l 331 425 l 435 914 l 258 914 l 276 997 l 730 997 z "},"›":{"ha":463,"x_min":154,"x_max":436,"o":"m 154 150 l 180 272 l 350 385 l 228 497 l 254 620 l 436 449 l 408 321 l 154 150 z "},"£":{"ha":694,"x_min":65,"x_max":807,"o":"m 92 321 l 218 321 l 203 251 q 196 196 196 217 q 319 89 196 89 q 515 261 478 89 l 672 997 l 807 997 l 651 270 q 573 94 629 160 q 447 1 518 28 q 301 -26 377 -26 q 160 2 213 -26 q 86 73 107 30 q 65 167 65 117 q 71 222 65 200 l 92 321 z "},"¤":{"ha":772,"x_min":83,"x_max":897,"o":"m 844 838 l 897 771 l 804 696 q 839 565 839 643 q 830 488 839 527 q 717 278 804 365 l 775 200 l 699 138 l 639 218 q 417 142 542 142 q 225 218 293 142 l 132 138 l 83 200 l 175 278 q 142 408 142 330 q 150 488 142 448 q 262 696 175 615 l 203 771 l 283 838 l 346 760 q 563 830 442 830 q 749 760 682 830 l 844 838 m 251 488 q 246 435 246 463 q 299 295 246 351 q 437 239 352 239 q 565 273 503 239 q 671 364 627 307 q 729 488 714 421 q 735 537 735 509 q 710 637 735 592 q 642 707 686 681 q 542 733 598 733 q 415 699 477 733 q 309 608 353 665 q 251 488 265 552 z "},"¦":{"ha":361,"x_min":125,"x_max":450,"o":"m 125 -26 l 211 382 l 313 382 l 227 -26 l 125 -26 m 267 639 l 349 1024 l 450 1024 l 368 639 l 267 639 z "},"§":{"ha":772,"x_min":105,"x_max":811,"o":"m 803 769 l 685 769 q 687 787 685 769 q 689 817 689 804 q 578 918 689 918 q 484 890 529 918 q 426 806 439 862 q 424 786 424 791 q 502 681 424 733 l 679 561 q 760 486 731 526 q 789 390 789 446 q 783 339 789 365 q 717 209 766 260 q 593 117 668 158 q 636 1 636 58 q 632 -42 636 -19 q 569 -161 617 -110 q 457 -238 521 -212 q 332 -265 393 -265 q 166 -219 227 -265 q 105 -78 105 -173 q 114 -4 105 -43 l 236 -4 q 231 -54 231 -29 q 339 -160 231 -160 q 445 -135 394 -160 q 508 -44 495 -110 q 511 -22 511 -27 q 455 65 511 23 l 205 260 q 146 386 146 307 q 151 429 146 404 q 214 560 169 511 q 336 649 259 609 q 297 749 297 707 q 301 787 297 766 q 350 898 313 843 q 452 988 388 952 q 602 1024 516 1024 q 750 982 688 1024 q 811 843 811 941 q 803 769 811 810 m 604 446 l 394 594 q 272 460 291 546 q 268 426 268 441 q 310 342 268 374 l 536 172 q 622 234 591 203 q 663 313 652 265 q 665 340 665 332 q 604 446 665 401 z "},"¨":{"ha":926,"x_min":15,"x_max":954,"o":"m 751 0 l 15 0 l 228 997 l 954 997 l 928 878 l 336 878 l 272 572 l 818 572 l 792 453 l 246 453 l 175 119 l 777 119 l 751 0 m 574 1110 l 447 1110 l 478 1251 l 604 1251 l 574 1110 m 799 1110 l 672 1110 l 703 1251 l 829 1251 l 799 1110 z "},"©":{"ha":1024,"x_min":75,"x_max":1164,"o":"m 508 -26 q 285 26 384 -26 q 131 172 186 78 q 75 386 75 266 q 87 500 75 443 q 173 707 111 611 q 325 874 236 804 q 519 984 413 945 q 732 1024 626 1024 q 954 971 856 1024 q 1108 825 1053 919 q 1164 611 1164 730 q 1152 500 1164 558 q 1065 292 1128 389 q 913 123 1003 195 q 720 13 824 52 q 508 -26 615 -26 m 193 500 q 182 399 182 444 q 225 223 182 300 q 346 104 268 146 q 526 61 425 61 q 753 118 643 61 q 941 276 864 175 q 1046 500 1019 376 q 1057 597 1057 552 q 1014 773 1057 695 q 892 893 970 850 q 712 936 813 936 q 484 879 594 936 q 297 722 374 822 q 193 500 219 622 m 781 401 l 875 401 q 750 238 834 299 q 569 178 666 178 q 386 245 452 178 q 321 421 321 312 q 329 502 321 460 q 401 667 349 594 q 531 781 453 740 q 701 822 609 822 q 858 768 800 822 q 917 604 917 713 l 824 604 q 807 671 824 643 q 758 715 790 700 q 683 730 726 730 q 568 701 620 730 q 483 619 517 671 q 435 503 448 567 q 428 443 428 468 q 446 354 428 393 q 501 292 465 314 q 589 270 537 270 q 707 306 654 270 q 781 401 760 343 z "},"«":{"ha":772,"x_min":203,"x_max":769,"o":"m 411 272 l 385 150 l 203 321 l 231 449 l 485 620 l 458 497 l 289 385 l 411 272 m 696 272 l 669 150 l 488 321 l 515 449 l 769 620 l 743 497 l 574 385 l 696 272 z "},"¬":{"ha":811,"x_min":147,"x_max":872,"o":"m 688 150 l 749 440 l 147 440 l 170 542 l 872 542 l 789 150 l 688 150 z "},"­":{"ha":463,"x_min":199,"x_max":650,"o":"m 650 950 l 633 871 l 199 871 l 215 950 l 650 950 z "},"®":{"ha":1024,"x_min":75,"x_max":1164,"o":"m 508 -26 q 285 26 384 -26 q 131 172 186 78 q 75 386 75 266 q 87 500 75 443 q 173 707 111 611 q 325 874 236 804 q 519 984 413 945 q 732 1024 626 1024 q 954 971 856 1024 q 1108 825 1053 919 q 1164 611 1164 730 q 1152 500 1164 558 q 1065 292 1128 389 q 913 123 1003 195 q 720 13 824 52 q 508 -26 615 -26 m 193 500 q 182 399 182 444 q 225 223 182 300 q 346 104 268 146 q 526 61 425 61 q 753 118 643 61 q 941 276 864 175 q 1046 500 1019 376 q 1057 597 1057 552 q 1014 773 1057 695 q 892 893 970 850 q 712 936 813 936 q 484 879 594 936 q 297 722 374 822 q 193 500 219 622 m 500 458 l 445 196 l 353 196 l 482 801 l 712 801 q 850 772 805 801 q 895 679 895 742 q 889 629 895 653 q 822 512 873 553 q 697 463 771 472 l 812 196 l 710 196 l 606 458 l 500 458 m 517 536 l 626 536 q 741 554 700 536 q 794 635 782 572 q 797 657 797 651 q 682 724 797 724 l 557 724 l 517 536 z "},"¯":{"ha":386,"x_min":126,"x_max":578,"o":"m 474 997 l 261 0 l 126 0 l 339 997 l 474 997 m 353 1251 l 322 1110 l 196 1110 l 227 1251 l 353 1251 m 578 1251 l 547 1110 l 421 1110 l 451 1251 l 578 1251 z "},"°":{"ha":555,"x_min":235,"x_max":650,"o":"m 472 917 q 401 896 436 917 q 339 843 365 876 q 306 773 314 810 q 303 746 303 754 q 333 665 303 699 q 411 631 364 631 q 483 651 447 631 q 544 704 518 671 q 578 773 570 737 q 581 803 581 783 q 550 883 581 850 q 472 917 519 917 m 645 773 q 596 671 633 717 q 507 597 560 624 q 399 571 455 571 q 280 615 325 571 q 235 729 235 659 q 239 773 235 751 q 328 918 258 860 q 485 976 398 976 q 571 956 534 976 q 630 901 609 936 q 650 820 650 865 q 645 773 650 805 z "},"±":{"ha":811,"x_min":54,"x_max":858,"o":"m 457 479 l 506 703 l 607 703 l 558 479 l 858 479 l 838 378 l 537 378 l 490 154 l 389 154 l 436 378 l 135 378 l 156 479 l 457 479 m 54 0 l 76 101 l 779 101 l 757 0 l 54 0 z "},"²":{"ha":386,"x_min":126,"x_max":474,"o":"m 474 997 l 261 0 l 126 0 l 339 997 l 474 997 z "},"³":{"ha":308,"x_min":93,"x_max":428,"o":"m 370 726 l 215 0 l 93 0 l 247 726 l 370 726 m 397 858 l 275 858 l 306 997 l 428 997 l 397 858 z "},"µ":{"ha":772,"x_min":33,"x_max":833,"o":"m 679 0 l 564 0 l 586 105 l 585 108 q 470 11 530 42 q 327 -21 411 -21 q 225 26 252 -21 l 222 26 l 156 -288 l 33 -288 l 138 204 l 249 726 l 371 726 l 268 244 q 261 190 261 211 q 375 85 261 85 q 499 121 447 85 q 583 212 552 157 q 626 327 614 267 l 711 726 l 833 726 l 679 0 z "},"¶":{"ha":746,"x_min":175,"x_max":903,"o":"m 271 -240 l 424 478 q 242 535 309 478 q 175 682 175 591 q 180 733 175 709 q 308 932 209 867 q 558 997 407 997 l 903 997 l 639 -240 l 537 -240 l 783 914 l 618 914 l 372 -240 l 271 -240 z "},"·":{"ha":386,"x_min":182,"x_max":356,"o":"m 288 437 q 336 415 317 437 q 356 350 356 392 q 317 290 348 316 q 249 264 285 264 q 200 286 217 264 q 182 350 182 309 q 221 412 189 388 q 288 437 252 437 z "},"¸":{"ha":772,"x_min":28,"x_max":714,"o":"m 425 839 l 299 839 l 329 981 l 455 981 l 425 839 m 650 839 l 524 839 l 554 981 l 681 981 l 650 839 m 665 228 q 637 170 658 205 q 578 96 615 135 q 493 29 541 57 q 286 -21 409 -21 q 95 50 162 -21 q 28 240 28 121 q 39 343 28 295 q 188 635 77 522 q 472 747 300 747 q 607 715 553 747 q 687 623 661 684 q 714 478 714 563 q 696 323 714 413 l 165 323 q 156 243 156 283 q 325 85 156 85 q 426 108 378 85 q 504 166 473 132 q 543 228 535 200 l 665 228 m 589 421 q 594 480 594 463 q 433 637 594 637 q 326 607 379 637 q 235 526 273 577 q 185 421 197 476 l 589 421 z "},"¹":{"ha":507,"x_min":139,"x_max":650,"o":"m 642 793 q 581 656 624 708 q 485 584 539 605 q 374 563 431 563 q 246 600 297 563 q 194 724 194 638 q 203 793 194 754 q 264 929 221 878 q 361 1002 307 981 q 472 1024 415 1024 q 599 987 548 1024 q 650 864 650 949 q 642 793 650 832 m 549 793 q 555 849 555 821 q 457 951 555 951 q 347 903 385 951 q 296 793 310 854 q 290 740 290 763 q 389 635 290 635 q 473 661 439 635 q 524 722 507 686 q 549 793 542 758 m 153 489 l 564 489 l 550 422 l 139 422 l 153 489 z "},"»":{"ha":772,"x_min":167,"x_max":733,"o":"m 421 321 l 167 150 l 193 272 l 362 385 l 240 497 l 267 620 l 449 449 l 421 321 m 706 321 l 451 150 l 478 272 l 647 385 l 525 497 l 551 620 l 733 449 l 706 321 z "},"¼":{"ha":308,"x_min":-83,"x_max":428,"o":"m 370 726 l 193 -107 q 131 -237 177 -182 q -33 -292 84 -292 q -83 -288 -56 -292 l -61 -182 l -36 -182 q 41 -167 21 -182 q 74 -93 61 -152 l 247 726 l 370 726 m 428 997 l 397 858 l 275 858 l 306 997 l 428 997 z "},"½":{"ha":926,"x_min":125,"x_max":990,"o":"m 983 706 l 857 706 q 861 747 861 730 q 800 870 861 831 q 653 908 740 908 q 575 902 614 908 q 497 876 536 895 q 429 822 458 858 q 388 733 399 787 q 383 703 383 715 q 479 607 383 632 l 750 542 q 926 343 926 497 q 920 275 926 307 q 854 132 902 191 q 741 38 806 72 q 606 -12 676 3 q 465 -26 535 -26 q 282 1 342 -26 q 185 70 221 28 q 125 227 125 135 q 136 322 125 269 l 262 322 q 256 265 256 288 q 323 131 256 173 q 489 89 391 89 q 676 125 588 89 q 785 257 764 162 q 790 303 790 279 q 751 381 790 353 q 610 433 711 409 l 417 480 q 247 661 247 523 q 253 715 247 689 q 322 867 270 797 q 461 981 374 938 q 663 1024 548 1024 q 990 783 990 1024 q 983 706 990 742 z "},"¾":{"ha":694,"x_min":87,"x_max":735,"o":"m 730 519 l 612 519 q 615 549 615 538 q 467 642 615 642 q 366 620 418 642 q 300 539 313 598 q 297 518 297 523 q 322 474 297 489 q 413 442 346 460 l 528 411 q 658 352 618 387 q 697 264 697 318 q 692 219 697 250 q 627 92 676 147 q 507 8 578 37 q 353 -21 435 -21 q 87 167 87 -21 q 95 233 87 188 l 213 233 q 210 197 210 208 q 374 85 210 85 q 499 114 445 85 q 565 200 553 143 q 568 221 568 214 q 540 268 568 252 q 443 304 513 285 l 308 339 q 174 476 174 373 q 178 515 174 494 q 242 644 194 591 q 359 722 291 696 q 502 747 427 747 q 685 691 636 747 q 735 563 735 634 q 730 519 735 541 z "},"¿":{"ha":386,"x_min":132,"x_max":578,"o":"m 408 726 l 254 0 l 132 0 l 286 726 l 408 726 m 353 981 l 322 839 l 196 839 l 227 981 l 353 981 m 578 981 l 547 839 l 421 839 l 451 981 l 578 981 z "},"À":{"ha":926,"x_min":-72,"x_max":817,"o":"m 232 290 l 67 0 l -72 0 l 515 997 l 668 997 l 817 0 l 669 0 l 632 290 l 232 290 m 610 410 l 555 849 l 553 849 l 300 410 l 610 410 z "},"Á":{"ha":926,"x_min":15,"x_max":930,"o":"m 336 878 l 272 576 l 602 576 q 789 516 728 576 q 850 358 850 455 q 842 283 850 320 q 769 140 825 205 q 635 37 713 75 q 479 0 556 0 l 15 0 l 228 997 l 930 997 l 904 878 l 336 878 m 175 115 l 471 115 q 623 156 561 115 q 704 285 686 197 q 711 339 711 319 q 667 434 711 406 q 539 461 623 461 l 249 461 l 175 115 z "},"Â":{"ha":926,"x_min":15,"x_max":901,"o":"m 228 997 l 667 997 q 842 943 782 997 q 901 803 901 889 q 895 746 901 778 q 840 629 882 686 q 717 537 799 572 q 814 475 775 513 q 853 360 853 437 q 846 294 853 323 q 800 181 833 235 q 715 87 767 128 q 594 23 663 46 q 445 0 525 0 l 15 0 l 228 997 m 272 575 l 515 575 q 679 612 618 575 q 758 736 740 649 q 763 773 763 756 q 582 882 763 882 l 337 882 l 272 575 m 175 115 l 463 115 q 630 164 566 115 q 711 297 693 212 q 717 339 717 330 q 514 465 717 465 l 249 465 l 175 115 z "},"Ã":{"ha":772,"x_min":15,"x_max":882,"o":"m 150 1 l 15 1 l 228 997 l 882 997 l 856 878 l 336 878 l 150 1 z "},"Ä":{"ha":926,"x_min":-105,"x_max":943,"o":"m 56 0 l 17 -186 l -105 -186 l -42 119 l 25 119 q 149 389 114 228 l 278 997 l 943 997 l 755 119 l 832 119 l 768 -186 l 646 -186 l 685 0 l 56 0 m 153 119 l 621 119 l 782 878 l 379 878 l 276 389 q 153 119 244 236 z "},"Å":{"ha":926,"x_min":15,"x_max":954,"o":"m 751 0 l 15 0 l 228 997 l 954 997 l 928 878 l 336 878 l 272 572 l 818 572 l 792 453 l 246 453 l 175 119 l 777 119 l 751 0 z "},"Æ":{"ha":1388,"x_min":-68,"x_max":1482,"o":"m 674 0 l 539 0 l 614 350 l 519 492 l 107 0 l -68 0 l 443 586 l 156 997 l 342 997 l 649 514 l 751 997 l 886 997 l 783 514 l 1296 997 l 1482 997 l 1019 586 l 1281 0 l 1105 0 l 901 492 l 749 350 l 674 0 z "},"Ç":{"ha":926,"x_min":32,"x_max":901,"o":"m 483 576 q 663 617 579 576 q 763 730 747 657 q 767 772 767 754 q 706 877 767 848 q 564 906 645 906 q 471 895 517 906 q 383 861 425 885 q 310 797 341 837 q 265 703 279 758 l 139 703 q 203 843 153 771 q 353 968 252 916 q 603 1021 453 1021 q 761 994 693 1021 q 865 915 828 966 q 901 797 901 864 q 896 740 901 766 q 807 596 876 646 q 668 532 738 546 q 750 501 709 526 q 818 435 791 476 q 844 339 844 393 q 839 292 844 325 q 775 150 822 211 q 663 50 728 89 q 524 -7 598 12 q 376 -26 450 -26 q 107 57 182 -26 q 32 251 32 140 q 39 322 32 293 l 165 322 q 158 264 158 288 q 227 130 158 172 q 400 89 296 89 q 522 110 458 89 q 637 175 587 130 q 701 286 687 220 q 706 323 706 306 q 632 438 706 403 q 451 472 559 472 q 353 469 392 472 l 376 579 q 483 576 411 576 z "},"È":{"ha":1003,"x_min":15,"x_max":1019,"o":"m 186 192 l 189 192 l 860 997 l 1019 997 l 807 0 l 676 0 l 847 806 l 844 806 l 167 0 l 15 0 l 228 997 l 358 997 l 186 192 z "},"É":{"ha":1003,"x_min":15,"x_max":1019,"o":"m 186 192 l 189 192 l 860 997 l 1019 997 l 807 0 l 676 0 l 847 806 l 844 806 l 167 0 l 15 0 l 228 997 l 358 997 l 186 192 m 878 1176 q 617 987 816 987 q 449 1140 449 987 q 450 1176 449 1167 l 518 1176 q 537 1110 522 1131 q 645 1067 565 1067 q 752 1097 717 1067 q 811 1176 786 1127 l 878 1176 z "},"Ê":{"ha":926,"x_min":15,"x_max":1032,"o":"m 150 0 l 15 0 l 228 997 l 362 997 l 260 514 l 846 997 l 1032 997 l 531 594 l 830 0 l 655 0 l 414 500 l 225 350 l 150 0 z "},"Ë":{"ha":926,"x_min":-75,"x_max":946,"o":"m 380 878 l 251 270 q 198 124 233 182 q 119 34 164 65 q 26 -8 75 3 q -75 -19 -22 -19 l -48 101 q 70 145 33 101 q 124 270 107 188 l 279 997 l 946 997 l 733 0 l 598 0 l 785 878 l 380 878 z "},"Ì":{"ha":1157,"x_min":15,"x_max":1183,"o":"m 840 0 l 965 589 q 998 737 982 665 q 1021 838 1015 809 l 1018 838 l 560 0 l 426 0 l 323 836 l 321 836 q 271 589 323 836 l 146 0 l 15 0 l 228 997 l 421 997 l 526 154 l 529 154 l 992 997 l 1183 997 l 971 0 l 840 0 z "},"Í":{"ha":1003,"x_min":15,"x_max":1018,"o":"m 883 997 l 1018 997 l 806 0 l 671 0 l 769 465 l 249 465 l 150 0 l 15 0 l 228 997 l 362 997 l 274 585 l 794 585 l 883 997 z "},"Î":{"ha":1081,"x_min":58,"x_max":1053,"o":"m 445 -26 q 219 28 305 -26 q 96 170 133 82 q 58 361 59 258 q 74 498 58 432 q 172 741 100 621 q 370 942 243 861 q 668 1024 496 1024 q 893 969 807 1024 q 1015 828 979 915 q 1053 637 1052 741 q 1038 498 1053 568 q 975 320 1019 411 q 859 150 931 229 q 682 23 786 72 q 445 -26 577 -26 m 642 904 q 446 852 535 904 q 294 708 356 800 q 208 498 233 615 q 196 382 196 436 q 227 230 196 296 q 320 129 258 165 q 469 93 382 93 q 620 123 549 93 q 748 208 691 153 q 845 337 805 262 q 903 498 885 412 q 915 615 915 560 q 844 826 915 748 q 642 904 773 904 z "},"Ï":{"ha":1003,"x_min":15,"x_max":1018,"o":"m 1018 997 l 806 0 l 671 0 l 857 878 l 336 878 l 150 0 l 15 0 l 228 997 l 1018 997 z "},"Ð":{"ha":926,"x_min":15,"x_max":933,"o":"m 150 -1 l 15 -1 l 227 996 l 690 996 q 870 938 807 996 q 933 783 933 880 q 926 715 933 746 q 809 508 901 596 q 568 419 718 419 l 239 419 l 150 -1 m 264 535 l 547 535 q 787 714 751 535 q 793 761 793 738 q 626 881 793 881 l 337 881 l 264 535 z "},"Ñ":{"ha":1003,"x_min":58,"x_max":996,"o":"m 864 697 q 793 859 863 814 q 628 904 722 904 q 494 879 558 904 q 375 804 430 853 q 279 679 320 754 q 218 508 238 603 q 200 354 200 421 q 460 93 200 93 q 574 115 513 93 q 698 199 636 138 q 803 367 760 260 l 933 367 q 813 154 887 236 q 661 34 739 73 q 522 -15 584 -4 q 414 -26 460 -26 q 234 12 315 -26 q 106 132 154 50 q 58 337 58 214 q 78 504 58 419 q 155 715 102 619 q 282 880 207 810 q 452 986 357 949 q 654 1024 547 1024 q 846 984 769 1024 q 959 878 923 944 q 996 730 996 811 q 995 697 996 708 l 864 697 z "},"Ò":{"ha":849,"x_min":115,"x_max":951,"o":"m 142 997 l 951 997 l 925 878 l 588 878 l 401 0 l 267 0 l 453 878 l 115 878 l 142 997 z "},"Ó":{"ha":926,"x_min":135,"x_max":1033,"o":"m 267 -17 q 222 -21 250 -21 q 135 -5 176 -19 l 161 118 q 225 99 191 99 q 314 147 279 99 l 399 267 l 146 997 l 314 997 l 502 414 l 879 997 l 1033 997 l 435 118 q 267 -17 355 2 z "},"Ô":{"ha":1157,"x_min":57,"x_max":1133,"o":"m 746 893 q 917 869 843 893 q 1039 803 991 845 q 1110 705 1086 761 q 1133 583 1133 648 q 1124 498 1133 550 q 1064 350 1108 421 q 949 222 1020 279 q 785 134 878 166 q 578 103 691 103 l 555 0 l 422 0 l 445 103 q 228 144 316 103 q 99 257 140 186 q 57 415 57 328 q 65 498 57 458 q 127 648 83 577 q 241 775 172 720 q 405 862 311 830 q 612 895 499 895 l 635 997 l 768 997 l 746 893 m 724 789 l 600 208 q 775 239 695 208 q 909 334 854 269 q 985 498 964 400 q 995 579 995 539 q 961 698 995 651 q 866 767 927 745 q 724 789 806 789 m 467 208 l 590 789 q 415 759 495 789 q 281 663 336 728 q 204 498 225 597 q 196 421 196 457 q 230 301 196 349 q 324 231 263 253 q 467 208 384 208 z "},"Õ":{"ha":926,"x_min":-64,"x_max":1004,"o":"m 810 0 l 643 0 l 458 410 l 99 0 l -64 0 l 397 511 l 167 997 l 336 997 l 506 615 l 843 997 l 1004 997 l 563 511 l 810 0 z "},"Ö":{"ha":1003,"x_min":15,"x_max":1018,"o":"m 760 0 l 15 0 l 228 997 l 362 997 l 175 119 l 696 119 l 883 997 l 1018 997 l 830 119 l 907 119 l 843 -186 l 721 -186 l 760 0 z "},"×":{"ha":1003,"x_min":144,"x_max":1018,"o":"m 883 997 l 1018 997 l 806 0 l 671 0 l 769 465 q 607 416 718 446 q 386 386 496 386 q 144 576 144 386 q 154 655 144 606 l 228 997 l 362 997 l 292 668 q 288 628 288 647 q 453 515 288 515 q 645 541 545 515 q 794 585 746 567 l 883 997 z "},"Ø":{"ha":1183,"x_min":15,"x_max":1189,"o":"m 588 119 l 867 119 l 1054 997 l 1189 997 l 976 0 l 15 0 l 228 997 l 362 997 l 175 119 l 453 119 l 640 997 l 775 997 l 588 119 z "},"Ù":{"ha":1183,"x_min":15,"x_max":1189,"o":"m 930 0 l 15 0 l 228 997 l 362 997 l 175 119 l 453 119 l 640 997 l 775 997 l 588 119 l 867 119 l 1054 997 l 1189 997 l 1001 119 l 1078 119 l 1014 -186 l 892 -186 l 930 0 z "},"Ú":{"ha":1003,"x_min":92,"x_max":920,"o":"m 349 576 l 678 576 q 817 546 763 576 q 895 466 871 516 q 920 354 920 416 q 911 280 920 317 q 843 136 894 200 q 718 36 793 72 q 555 0 643 0 l 92 0 l 279 883 l 96 883 l 121 997 l 439 997 l 349 576 m 251 115 l 540 115 q 772 282 738 115 q 779 336 779 316 q 608 461 779 461 l 325 461 l 251 115 z "},"Û":{"ha":1208,"x_min":15,"x_max":1225,"o":"m 272 576 l 586 576 q 725 546 671 576 q 804 466 780 516 q 828 354 828 416 q 820 280 828 316 q 753 136 802 200 q 629 36 704 72 q 464 0 554 0 l 15 0 l 228 997 l 362 997 l 272 576 m 1013 0 l 878 0 l 1090 997 l 1225 997 l 1013 0 m 175 115 l 449 115 q 681 282 646 115 q 688 336 688 318 q 517 461 688 461 l 249 461 l 175 115 z "},"Ü":{"ha":926,"x_min":15,"x_max":843,"o":"m 272 576 l 602 576 q 741 546 687 576 q 819 466 795 516 q 843 354 843 416 q 835 280 843 316 q 768 136 818 200 q 644 36 719 72 q 479 0 569 0 l 15 0 l 228 997 l 362 997 l 272 576 m 175 115 l 464 115 q 696 282 661 115 q 703 336 703 318 q 532 461 703 461 l 249 461 l 175 115 z "},"Ý":{"ha":1003,"x_min":36,"x_max":975,"o":"m 830 565 q 835 631 835 600 q 772 834 835 764 q 592 904 708 904 q 401 859 492 904 q 256 697 310 815 l 125 697 q 229 859 160 785 q 397 979 297 933 q 618 1024 496 1024 q 814 978 733 1024 q 935 850 894 933 q 975 655 975 767 q 958 504 975 585 q 832 203 920 323 q 630 28 744 83 q 397 -26 516 -26 q 299 -14 357 -26 q 181 33 242 -2 q 78 141 120 69 q 36 325 36 213 l 167 325 q 208 185 167 237 q 306 113 249 133 q 415 93 363 93 q 664 190 568 93 q 807 453 761 287 l 262 453 l 288 565 l 830 565 z "},"Þ":{"ha":1337,"x_min":15,"x_max":1310,"o":"m 374 465 l 249 465 l 150 0 l 15 0 l 228 997 l 362 997 l 274 585 l 400 585 q 477 744 430 667 q 590 884 524 822 q 747 985 656 947 q 949 1024 838 1024 q 1226 916 1142 1024 q 1310 646 1310 807 q 1294 498 1310 572 q 1233 320 1276 412 q 1117 150 1189 229 q 943 23 1046 72 q 711 -26 841 -26 q 507 27 585 -26 q 398 167 430 81 q 365 356 365 253 q 374 465 365 414 m 922 904 q 738 852 821 904 q 598 709 654 801 q 517 498 542 617 q 503 372 503 436 q 531 226 503 289 q 615 128 559 162 q 750 93 671 93 q 934 144 851 93 q 1074 288 1017 196 q 1156 498 1131 381 q 1170 625 1170 562 q 1141 772 1170 708 q 1058 869 1113 835 q 922 904 1002 904 z "},"ß":{"ha":1003,"x_min":-24,"x_max":1006,"o":"m 749 428 l 545 428 l 153 0 l -24 0 l 379 429 q 219 483 289 429 q 150 645 150 536 q 158 724 150 678 q 238 884 179 823 q 376 971 297 946 q 545 997 455 997 l 1006 997 l 793 0 l 659 0 l 749 428 m 846 882 l 510 882 q 294 715 331 882 q 289 665 289 691 q 461 543 289 543 l 773 543 l 846 882 z "},"à":{"ha":772,"x_min":-5,"x_max":686,"o":"m 103 506 q 224 689 134 631 q 454 747 314 747 q 548 736 495 747 q 643 689 601 725 q 686 589 686 654 q 681 545 686 567 l 592 126 q 599 93 592 102 q 624 83 607 83 q 665 89 635 83 l 646 0 q 628 -5 644 0 q 600 -12 612 -9 q 576 -14 588 -14 q 468 67 468 -14 q 471 97 468 80 q 345 13 413 46 q 183 -21 278 -21 q 46 24 97 -21 q -5 142 -5 68 q 0 189 -5 167 q 75 332 16 263 q 270 417 134 400 l 476 442 q 558 528 542 448 q 561 554 561 547 q 413 646 561 646 q 280 606 321 646 q 215 506 238 567 l 103 506 m 522 371 q 311 325 485 347 q 131 207 151 304 q 126 168 126 186 q 235 81 126 81 q 349 103 291 81 q 446 165 406 126 q 496 251 487 205 l 522 371 z "},"á":{"ha":772,"x_min":29,"x_max":803,"o":"m 717 999 l 803 999 q 789 952 801 983 q 744 896 778 921 q 619 857 704 866 q 453 839 534 849 q 321 793 372 830 q 245 712 273 758 q 192 610 217 666 l 196 610 q 320 700 263 673 q 471 726 377 726 q 609 689 553 726 q 692 587 665 651 q 720 447 720 524 q 710 353 720 397 q 633 171 689 256 q 487 32 577 85 q 282 -21 396 -21 q 160 8 217 -21 q 66 100 102 36 q 29 267 29 164 q 46 414 29 331 q 84 561 63 493 q 141 698 105 629 q 227 824 176 766 q 351 922 278 882 q 636 967 431 967 l 678 967 q 717 999 710 970 m 583 353 q 592 429 592 391 q 555 565 592 509 q 429 621 518 621 q 247 532 313 621 q 161 353 181 444 q 153 276 153 314 q 190 141 153 198 q 315 85 226 85 q 453 132 396 85 q 541 241 510 179 q 583 353 572 302 z "},"â":{"ha":767,"x_min":4,"x_max":697,"o":"m 158 726 l 515 726 q 697 592 697 726 q 692 543 697 576 q 645 454 683 499 q 536 383 608 409 q 632 340 594 367 q 669 253 669 314 q 665 214 669 235 q 615 105 652 152 q 514 28 579 57 q 353 0 448 0 l 4 0 l 158 726 m 215 421 l 394 421 q 482 431 448 421 q 537 467 517 442 q 567 536 557 492 q 569 563 569 556 q 541 611 569 596 q 440 625 512 625 l 260 625 l 215 421 m 149 101 l 368 101 q 489 128 450 101 q 542 217 529 155 q 546 247 546 233 q 511 306 546 288 q 394 323 476 323 l 196 323 l 149 101 z "},"ã":{"ha":565,"x_min":4,"x_max":631,"o":"m 260 625 l 126 0 l 4 0 l 158 726 l 631 726 l 610 625 l 260 625 z "},"ä":{"ha":715,"x_min":-129,"x_max":685,"o":"m 18 0 l -21 -186 l -129 -186 l -68 101 l -18 101 q 26 152 0 110 q 62 240 52 193 l 165 726 l 685 726 l 553 101 l 618 101 l 557 -186 l 449 -186 l 488 0 l 18 0 m 431 101 l 542 625 l 260 625 l 178 240 q 100 101 158 152 l 431 101 z "},"å":{"ha":772,"x_min":28,"x_max":714,"o":"m 665 228 q 637 170 658 205 q 578 96 615 135 q 493 29 541 57 q 286 -21 409 -21 q 95 50 162 -21 q 28 240 28 121 q 39 343 28 295 q 188 635 77 522 q 472 747 300 747 q 607 715 553 747 q 687 623 661 684 q 714 478 714 563 q 696 323 714 413 l 165 323 q 156 243 156 283 q 325 85 156 85 q 426 108 378 85 q 504 166 473 132 q 543 228 535 200 l 665 228 m 589 421 q 594 480 594 463 q 433 637 594 637 q 326 607 379 637 q 235 526 273 577 q 185 421 197 476 l 589 421 z "},"æ":{"ha":1003,"x_min":-92,"x_max":1050,"o":"m 624 726 l 558 419 l 895 726 l 1050 726 l 694 428 l 912 0 l 755 0 l 588 339 l 528 275 l 469 0 l 351 0 l 410 275 l 378 339 l 65 0 l -92 0 l 307 428 l 79 726 l 235 726 l 440 419 l 506 726 l 624 726 z "},"ç":{"ha":694,"x_min":-3,"x_max":647,"o":"m 336 425 q 457 452 407 425 q 517 532 506 479 q 521 564 521 549 q 393 646 521 646 q 194 512 224 646 l 79 512 q 121 612 90 561 q 228 703 153 663 q 425 743 303 743 q 546 721 496 743 q 622 662 597 699 q 647 582 647 625 q 645 550 647 561 q 579 434 627 466 q 471 389 532 401 q 611 256 611 367 q 607 213 611 236 q 486 42 583 102 q 261 -19 389 -19 q 54 38 111 -19 q -3 175 -3 96 q 4 235 -3 196 l 119 235 q 114 188 114 213 q 156 104 114 130 q 280 79 198 79 q 480 211 453 79 q 485 244 485 231 q 438 318 485 299 q 310 337 392 337 q 264 336 291 337 q 218 335 237 335 l 237 426 q 290 426 256 426 q 336 425 324 425 z "},"è":{"ha":772,"x_min":4,"x_max":743,"o":"m 165 182 l 168 182 l 594 726 l 743 726 l 589 0 l 467 0 l 582 545 l 579 545 l 146 0 l 4 0 l 158 726 l 280 726 l 165 182 z "},"é":{"ha":772,"x_min":4,"x_max":743,"o":"m 165 182 l 168 182 l 594 726 l 743 726 l 589 0 l 467 0 l 582 545 l 579 545 l 146 0 l 4 0 l 158 726 l 280 726 l 165 182 m 726 1015 q 465 826 667 826 q 297 979 297 826 q 299 1015 297 1006 l 367 1015 q 370 995 368 1007 q 376 971 372 983 q 386 949 379 959 q 494 906 416 906 q 602 936 568 906 q 660 1015 636 966 l 726 1015 z "},"ê":{"ha":694,"x_min":3,"x_max":743,"o":"m 606 0 l 449 0 l 253 339 l 179 275 l 121 0 l 3 0 l 157 726 l 275 726 l 210 419 l 588 726 l 743 726 l 360 428 l 606 0 z "},"ë":{"ha":715,"x_min":-76,"x_max":685,"o":"m 260 625 l 168 196 q 132 101 157 147 q 55 22 106 55 q -76 -11 3 -11 l -52 101 q 19 120 -2 101 q 53 196 40 139 l 165 726 l 685 726 l 531 0 l 408 0 l 542 625 l 260 625 z "},"ì":{"ha":1003,"x_min":4,"x_max":972,"o":"m 446 156 l 790 726 l 972 726 l 818 0 l 700 -1 l 789 421 q 811 512 800 468 q 829 576 823 557 l 820 576 l 469 0 l 353 0 l 247 576 l 237 576 q 229 515 235 558 q 211 421 223 472 l 122 0 l 4 0 l 158 726 l 340 726 l 446 156 z "},"í":{"ha":772,"x_min":4,"x_max":743,"o":"m 621 726 l 743 726 l 589 0 l 467 0 l 536 329 l 196 329 l 126 0 l 4 0 l 158 726 l 280 726 l 217 426 l 557 426 l 621 726 z "},"î":{"ha":772,"x_min":25,"x_max":722,"o":"m 454 747 q 656 667 589 747 q 722 464 722 588 q 711 364 722 416 q 634 178 690 266 q 490 36 578 91 q 292 -19 401 -19 q 91 60 158 -19 q 25 261 25 139 q 36 364 25 309 q 112 550 56 461 q 256 693 168 638 q 454 747 344 747 m 314 86 q 451 132 394 86 q 540 241 509 178 q 585 364 572 304 q 594 453 594 407 q 580 545 594 503 q 529 615 565 588 q 432 642 492 642 q 250 553 316 642 q 162 364 184 465 q 153 274 153 318 q 189 140 153 194 q 314 86 226 86 z "},"ï":{"ha":772,"x_min":4,"x_max":743,"o":"m 743 726 l 589 0 l 467 0 l 600 625 l 260 625 l 126 0 l 4 0 l 158 726 l 743 726 z "},"ð":{"ha":772,"x_min":-60,"x_max":732,"o":"m 156 726 l 271 726 l 249 624 l 251 624 q 355 712 301 677 q 494 747 409 747 q 625 715 571 747 q 705 624 679 682 q 732 490 732 566 q 721 385 732 436 q 650 195 700 288 q 515 41 600 102 q 315 -21 431 -21 q 204 7 248 -21 q 143 76 161 34 l 140 76 l 62 -288 l -60 -288 l 156 726 m 335 85 q 497 162 431 85 q 590 365 563 240 q 604 479 604 431 q 450 637 604 637 q 188 329 253 637 q 179 253 179 286 q 227 125 179 164 q 335 85 274 85 z "},"ñ":{"ha":694,"x_min":14,"x_max":678,"o":"m 557 482 q 524 600 557 562 q 418 637 490 637 q 293 598 347 637 q 207 496 240 558 q 160 364 174 434 q 146 251 146 305 q 299 85 146 85 q 419 130 361 85 q 508 257 476 176 l 626 257 q 562 128 606 192 q 444 22 518 65 q 272 -21 371 -21 q 81 50 148 -21 q 14 240 14 121 q 25 343 14 295 q 174 635 63 522 q 458 747 286 747 q 626 686 574 747 q 678 531 678 625 q 675 482 678 498 l 557 482 z "},"ò":{"ha":617,"x_min":58,"x_max":665,"o":"m 413 625 l 279 0 l 157 0 l 290 625 l 58 625 l 79 726 l 665 726 l 645 625 l 413 625 z "},"ó":{"ha":694,"x_min":-70,"x_max":743,"o":"m 608 726 l 743 726 q 615 501 698 648 q 460 232 531 354 q 331 14 389 110 q 217 -168 254 -112 q 148 -252 180 -223 q 81 -289 115 -281 q -19 -297 46 -297 q -70 -286 -33 -297 l -46 -175 q 25 -188 -14 -188 q 77 -177 58 -188 q 119 -134 96 -166 q 190 -19 141 -102 l 79 726 l 218 726 l 286 135 l 289 135 l 608 726 z "},"ô":{"ha":1003,"x_min":17,"x_max":964,"o":"m 367 76 l 364 76 q 205 -21 282 -21 q 17 208 17 -21 q 39 385 17 286 q 100 563 60 482 q 203 696 140 645 q 351 747 267 747 q 414 738 390 747 q 452 713 438 728 q 475 678 465 698 q 490 643 484 657 l 493 643 l 504 726 l 551 949 l 674 949 l 626 726 l 602 643 l 604 643 q 637 680 620 661 q 674 714 654 699 q 721 738 693 728 q 787 747 749 747 q 889 718 849 747 q 946 639 929 689 q 964 525 964 589 q 947 385 964 466 q 608 -21 860 -21 q 492 76 531 -21 l 489 76 l 411 -288 l 289 -288 l 367 76 m 431 329 q 455 506 455 445 q 357 637 455 637 q 261 596 300 637 q 199 497 221 555 q 161 365 177 439 q 140 208 140 269 q 239 85 140 85 q 431 329 380 85 m 620 85 q 712 120 675 85 q 773 215 750 155 q 817 365 797 274 q 835 506 835 448 q 738 637 835 636 q 641 597 681 637 q 576 489 601 557 q 531 329 551 422 q 517 217 517 264 q 620 85 517 85 z "},"õ":{"ha":694,"x_min":-75,"x_max":735,"o":"m 590 0 l 435 0 l 313 274 l 79 0 l -75 0 l 260 374 l 92 726 l 249 726 l 362 471 l 585 726 l 735 726 l 414 374 l 590 0 z "},"ö":{"ha":772,"x_min":4,"x_max":743,"o":"m 547 0 l 4 0 l 158 726 l 280 726 l 149 101 l 489 101 l 621 726 l 743 726 l 611 101 l 678 101 l 617 -186 l 508 -186 l 547 0 z "},"÷":{"ha":772,"x_min":97,"x_max":743,"o":"m 467 0 l 536 328 q 426 297 501 315 q 275 278 351 278 q 97 413 97 278 q 104 468 97 433 l 158 726 l 280 726 l 229 486 q 227 461 227 467 q 343 385 227 385 q 465 399 402 385 q 557 424 527 414 l 621 726 l 743 726 l 589 0 l 467 0 z "},"ø":{"ha":1003,"x_min":4,"x_max":972,"o":"m 494 101 l 718 101 l 850 726 l 972 726 l 818 0 l 4 0 l 158 726 l 280 726 l 149 101 l 372 101 l 504 726 l 626 726 l 494 101 z "},"ù":{"ha":1003,"x_min":4,"x_max":972,"o":"m 777 0 l 4 0 l 158 726 l 280 726 l 149 101 l 372 101 l 504 726 l 626 726 l 494 101 l 718 101 l 850 726 l 972 726 l 840 101 l 907 101 l 846 -186 l 738 -186 l 777 0 z "},"ú":{"ha":772,"x_min":43,"x_max":685,"o":"m 679 214 q 628 106 667 155 q 523 29 590 58 q 361 0 455 0 l 83 0 l 217 625 l 43 625 l 64 726 l 360 726 l 294 421 l 450 421 q 685 264 685 421 q 679 214 685 238 m 228 101 l 382 101 q 503 128 464 101 q 555 217 543 155 q 560 250 560 235 q 529 306 560 289 q 431 323 499 323 l 275 323 l 228 101 z "},"û":{"ha":978,"x_min":4,"x_max":947,"o":"m 793 0 l 671 0 l 825 726 l 947 726 l 793 0 m 602 214 q 551 106 589 155 q 445 29 512 58 q 283 0 377 0 l 4 0 l 158 726 l 280 726 l 215 421 l 372 421 q 607 265 607 421 q 602 214 607 238 m 149 101 l 304 101 q 426 128 386 101 q 478 217 465 155 q 482 247 482 233 q 451 305 482 287 q 353 323 419 323 l 196 323 l 149 101 z "},"ü":{"ha":694,"x_min":4,"x_max":607,"o":"m 602 214 q 551 106 589 155 q 445 29 512 58 q 283 0 377 0 l 4 0 l 158 726 l 280 726 l 215 421 l 372 421 q 607 265 607 421 q 602 214 607 238 m 149 101 l 304 101 q 426 128 386 101 q 478 217 465 155 q 482 247 482 233 q 451 305 482 287 q 353 323 419 323 l 196 323 l 149 101 z "},"ý":{"ha":758,"x_min":8,"x_max":699,"o":"m 564 421 q 569 476 569 447 q 528 595 569 549 q 403 642 487 642 q 264 592 322 642 q 178 482 207 543 l 64 482 q 135 597 85 537 q 259 699 184 657 q 425 743 335 742 q 582 704 520 743 q 671 602 644 665 q 699 463 699 539 q 689 371 699 422 q 605 166 664 255 q 456 28 546 77 q 253 -21 367 -21 q 113 22 168 -21 q 33 123 58 65 q 8 228 8 182 l 129 228 q 149 166 129 200 q 202 109 169 132 q 274 85 235 85 q 451 150 379 85 q 547 325 524 215 l 204 325 l 223 421 l 564 421 z "},"þ":{"ha":1042,"x_min":4,"x_max":987,"o":"m 321 329 l 196 329 l 126 0 l 4 0 l 158 726 l 280 726 l 217 426 l 345 426 q 427 587 375 515 q 557 704 480 660 q 732 747 634 747 q 878 711 821 747 q 961 613 936 674 q 987 475 987 551 q 975 364 987 419 q 901 178 954 265 q 763 35 848 90 q 569 -19 679 -19 q 424 17 480 -19 q 341 114 367 53 q 315 253 315 176 q 321 329 315 296 m 592 86 q 766 171 707 86 q 849 364 826 257 q 860 461 860 419 q 826 590 860 539 q 710 642 792 642 q 536 556 594 642 q 454 364 477 470 q 442 257 442 309 q 592 86 442 86 z "},"ÿ":{"ha":772,"x_min":-35,"x_max":739,"o":"m -35 0 l 256 308 q 190 328 223 308 q 135 385 157 348 q 113 469 113 422 q 118 514 113 483 q 222 671 139 616 q 429 726 304 726 l 739 726 l 585 0 l 463 0 l 528 306 l 396 306 l 115 0 l -35 0 m 596 625 l 408 625 q 249 514 272 625 q 244 483 244 497 q 361 403 244 403 l 549 403 l 596 625 z "}}}
